<svg width="240" height="278" viewBox="0 0 240 278" fill="none" xmlns="http://www.w3.org/2000/svg">
<rect y="266" width="240" height="12" rx="6" fill="#644AC9"/>
<path d="M147.741 185.282L95.0254 238H111.995L151.442 198.552L152.059 200.764L114.824 238H131.794L155.759 214.034L156.376 216.246L134.623 238H151.594L160.076 229.517L160.693 231.728L154.422 238H162.442L163 240H76L76.5576 238H92.1963L147.125 183.07L147.741 185.282ZM143.425 169.8L77.0723 236.152L78.166 232.23L142.808 167.589L143.425 169.8ZM161.279 129.318C161.166 130.431 161.008 131.531 160.81 132.616L84.7275 208.699L85.8213 204.775L161.279 129.318ZM159.287 111.512C159.529 112.224 159.748 112.946 159.952 113.675L92.3828 181.244L93.4766 177.322L159.287 111.512ZM152.27 98.7305C152.69 99.2547 153.098 99.7895 153.494 100.334L94.834 158.993C94.2897 158.598 93.7555 158.189 93.2314 157.769L152.27 98.7305ZM141.797 89.4043C142.374 89.7664 142.941 90.1414 143.499 90.5303L85.0303 148.999C84.6414 148.442 84.2654 147.875 83.9033 147.298L141.797 89.4043ZM127.616 83.7871C128.394 83.9394 129.164 84.1102 129.926 84.3047L78.8037 135.426C78.6091 134.664 78.4374 133.894 78.2852 133.116L127.616 83.7871ZM78.4795 115.951C78.7688 114.634 79.1205 113.34 79.5303 112.072L106.572 85.0303C107.84 84.6205 109.134 84.2688 110.451 83.9795L78.4795 115.951Z" fill="#644AC9"/>
<path d="M230 240H163L140.995 161.087C153.275 153.757 161.5 140.34 161.5 125C161.5 101.804 142.696 83 119.5 83C96.304 83 77.5 101.804 77.5 125C77.5 140.34 85.7248 153.757 98.0039 161.087L76 240H10L120 0L230 240Z" fill="#644AC9"/>
</svg>
